#N canvas 155 184 1069 505 12;
#X obj 119 140 noise~;
#X obj 118 218 bp~ 0 50;
#X floatatom 147 197 5 0 0 0 - - -;
#X obj 247 138 noise~;
#X floatatom 275 195 5 0 0 0 - - -;
#X obj 375 138 noise~;
#X obj 503 133 noise~;
#X floatatom 531 190 5 0 0 0 - - -;
#X obj 374 352 *~;
#X floatatom 500 330 5 0 0 0 - - -;
#X obj 373 379 dac~;
#X floatatom 403 195 5 0 0 0 - - -;
#X obj 246 216 bp~ 0 110;
#X obj 374 216 bp~ 0 130;
#X obj 502 211 bp~ 0 300;
#X floatatom 346 5 5 0 0 0 - - -;
#X connect 0 0 1 0;
#X connect 1 0 8 0;
#X connect 2 0 1 1;
#X connect 3 0 12 0;
#X connect 4 0 12 1;
#X connect 5 0 13 0;
#X connect 6 0 14 0;
#X connect 7 0 14 1;
#X connect 8 0 10 0;
#X connect 8 0 10 1;
#X connect 9 0 8 1;
#X connect 11 0 13 1;
#X connect 12 0 8 0;
#X connect 13 0 8 0;
#X connect 14 0 8 0;
#X connect 15 0 2 0;
#X connect 15 0 4 0;
#X connect 15 0 11 0;
#X connect 15 0 7 0;
